<?xml version="1.0" encoding="UTF-8"?>
<svg width="808px" height="921px" viewBox="0 0 808 921" version="1.1" xmlns="http://www.w3.org/2000/svg" xmlns:xlink="http://www.w3.org/1999/xlink">
    <g id="Page-1" stroke="none" stroke-width="1" fill="none" fill-rule="evenodd">
        <g id="Artboard" transform="translate(-108.000000, -52.000000)" fill="#ffffff" fill-rule="nonzero">
            <path d="M451.520072,623.755617 L452.264287,624.070481 C470.648385,631.755293 490.82849,636 512,636 C531.652447,636 550.450652,632.342559 567.751076,625.671217 L566.245116,626.413 C574.994913,622.5543 579.401889,624.483416 579.466042,632.200349 C579.504535,636.830508 579.698607,637.116613 580.04826,633.058663 L580.047086,748.242299 C580.047086,750.750442 580.754025,753.207758 582.086765,755.332244 C585.805457,761.26011 593.419014,763.256932 599.519265,760.084599 L600.469096,759.540571 L728.28044,679.31013 C732.123608,676.897678 736.90382,676.618075 740.974378,678.505846 L741.976286,679.022964 L857.128922,744.746365 C859.100896,745.87187 860.752927,747.482412 861.928482,749.425379 C865.55092,755.412595 863.912344,763.113502 858.337699,767.138917 L857.424977,767.743182 L521.574231,971.072778 C517.669505,973.436764 512.853584,973.626479 508.80168,971.639001 L507.805586,971.096774 L169.267951,767.749131 C167.300277,766.567218 165.670895,764.897266 164.537457,762.900864 C161.073844,756.800156 162.943397,749.12458 168.661059,745.264803 L169.547385,744.715133 L285.141601,679.045766 C289.118359,676.786554 293.948347,676.735194 297.947374,678.846107 L298.928847,679.41886 L423.159149,759.175387 C425.308117,760.555038 427.807911,761.288448 430.361396,761.288448 C437.390996,761.288448 443.150121,755.84712 443.659152,748.945329 L443.695728,747.94985 L443.693,632.94 L443.950677,634.952863 C443.236336,626.441899 445.759468,622.709484 451.520072,623.755617 Z M555.263329,52 C557.600837,52 559.897269,52.6146626 561.922428,53.7823769 L909.32476,254.095735 C913.454963,256.477229 916,260.883208 916,265.651957 L916,676.095135 C916,683.461843 910.030013,689.433733 902.665667,689.433733 C900.162553,689.433733 897.709983,688.728948 895.588517,687.400004 L780.628729,615.386073 C776.735711,612.947377 774.371547,608.676031 774.371547,604.081197 L774.371547,453.11513 C774.371547,445.748429 768.40156,439.776532 761.037215,439.776532 C758.719161,439.776532 756.441144,440.381017 754.427879,441.530364 L677.702225,485.334136 C671.235054,487.68387 667.798667,485.520313 667.393065,478.843463 C667.19416,475.569188 667.031384,474.476247 666.904734,475.56464 C665.407838,432.074332 645.991859,393.134172 615.810385,365.896574 L619.750615,368.731934 C612.235804,362.817871 611.870162,358.021077 618.653691,354.341553 C619.874726,353.679238 620.743986,353.188108 621.261471,352.86816 L682.733907,318.211882 C689.149588,314.595108 691.419491,306.460537 687.803874,300.042804 C686.621098,297.943369 684.891829,296.203682 682.799819,295.008617 L548.650773,218.375476 C544.494368,216.001119 541.928996,211.580481 541.928996,206.792544 L541.928996,65.3385982 C541.928996,57.9718972 547.898983,52 555.263329,52 Z M468.736665,52 C475.766272,52 481.52539,57.4413344 482.034421,64.3431253 L482.070997,65.3385982 L482.070997,206.792544 C482.070997,211.212176 479.88512,215.31885 476.27971,217.791986 L475.349227,218.375476 L341.200175,295.008617 C339.108171,296.203682 337.378895,297.943369 336.19612,300.042804 C332.752675,306.15493 334.64757,313.824284 340.377953,317.66514 L341.266093,318.211882 L407.401232,355.495937 C412.121608,358.953479 411.240843,363.286364 404.758939,368.494593 L404.460449,368.731934 L407.393135,366.620369 C377.677451,393.812088 358.59253,432.430604 357.095091,475.519197 C357.013423,476.047903 356.920509,477.155993 356.817999,478.843463 C356.399402,485.734225 352.752709,487.81787 345.877922,485.094397 L269.572121,441.530364 C267.55885,440.381017 265.280839,439.776532 262.962779,439.776532 C255.933179,439.776532 250.174054,445.217866 249.665022,452.119657 L249.628446,453.11513 L249.628446,604.081197 C249.628446,608.293133 247.641891,612.233241 244.312188,614.739091 L243.371264,615.386073 L128.411483,687.400004 C126.290017,688.728948 123.837447,689.433733 121.334333,689.433733 C114.304726,689.433733 108.545608,683.992399 108.036569,677.090614 L108,676.095135 L108,265.651957 C108,261.250032 110.168549,257.157217 113.750684,254.680493 L114.675234,254.095735 L462.077566,53.7823769 C464.102724,52.6146626 466.399163,52 468.736665,52 Z M512,370 C573.303607,370 623,419.696393 623,481 C623,542.303607 573.303607,592 512,592 C450.696393,592 401,542.303607 401,481 C401,419.696393 450.696393,370 512,370 Z" id="Combined-Shape"></path>
        </g>
    </g>
</svg>